<svg id="instagram.svg" xmlns="http://www.w3.org/2000/svg" width="25.625" height="25.62" viewBox="0 0 25.625 25.62">
  <defs>
    <style>
      .cls-1 {
        fill: #3f729b;
      }

      .cls-2 {
        fill: #fff;
        fill-rule: evenodd;
      }
    </style>
  </defs>
  <circle id="base" class="cls-1" cx="12.813" cy="12.81" r="12.813"/>
  <path id="icon" class="cls-2" d="M723.418,4617.8h-8.836a2.787,2.787,0,0,0-2.784,2.78v8.84a2.787,2.787,0,0,0,2.784,2.78h8.836a2.787,2.787,0,0,0,2.784-2.78v-8.84A2.787,2.787,0,0,0,723.418,4617.8Zm0.877,1.61h0.315v2.39l-2.408.01-0.008-2.4h2.1ZM719,4622.59a2.41,2.41,0,1,1-2.41,2.41A2.421,2.421,0,0,1,719,4622.59Zm5.624,6.65a1.383,1.383,0,0,1-1.381,1.38h-8.511a1.382,1.382,0,0,1-1.381-1.38v-5.84h2a4.566,4.566,0,0,0-.29,1.6,3.939,3.939,0,1,0,7.877,0,4.566,4.566,0,0,0-.29-1.6h1.976v5.84Z" transform="translate(-706.188 -4612.19)"/>
</svg>
