<svg id="linkedin.svg" xmlns="http://www.w3.org/2000/svg" width="25.625" height="25.62" viewBox="0 0 25.625 25.62">
  <defs>
    <style>
      .cls-1 {
        fill: #0e76a8;
      }

      .cls-2 {
        fill: #fff;
        fill-rule: evenodd;
      }
    </style>
  </defs>
  <circle id="base" class="cls-1" cx="12.813" cy="12.81" r="12.813"/>
  <path id="in" class="cls-2" d="M677.412,4629.79h2.4v-7.99h-2.4v7.99Zm9.338-8.27a3.616,3.616,0,0,0-2.942,1.36v-1.11H681.4v8.02h2.406v-4.34a1.907,1.907,0,0,1,1.891-1.81c1.051,0,1.309.9,1.309,1.79v4.36h2.4v-4.54C689.406,4622.1,687.914,4621.52,686.75,4621.52Zm-8.15-2.92a1.2,1.2,0,1,1-1.2,1.2A1.2,1.2,0,0,1,678.6,4618.6Z" transform="translate(-670.188 -4612.19)"/>
</svg>
