<svg id="vimeo.svg" xmlns="http://www.w3.org/2000/svg" width="25.625" height="25.62" viewBox="0 0 25.625 25.62">
  <defs>
    <style>
      .cls-1 {
        fill: #86c9ef;
      }

      .cls-2 {
        fill: #fff;
        fill-rule: evenodd;
      }
    </style>
  </defs>
  <circle id="base" class="cls-1" cx="12.813" cy="12.81" r="12.813"/>
  <path id="v" class="cls-2" d="M747.8,4622.6c1.2-.96,2.9-3.05,4.226-3.05s1.651,1.56,1.832,2.98,0.7,4.53,1.4,4.53,2.3-2.75,2.211-3.81-1.248-.9-1.885-0.6c0.585-2.12,1.937-3.25,3.666-3.25s2.146,1.22,2.146,2.72c0,2.28-4.629,9.28-7.424,9.28-1.73,0-2.158-2.55-2.509-3.81s-1.041-4.57-1.847-4.78a3.17,3.17,0,0,0-1.2.65Z" transform="translate(-742.188 -4612.19)"/>
</svg>
